<svg width="12" height="10" viewBox="0 0 12 10" fill="none" xmlns="http://www.w3.org/2000/svg">
<path d="M4.75 4C4.97981 4 5.20738 3.95474 5.4197 3.86679C5.63202 3.77884 5.82493 3.64994 5.98744 3.48744C6.14994 3.32493 6.27884 3.13202 6.36679 2.9197C6.45474 2.70738 6.5 2.47981 6.5 2.25C6.5 2.02019 6.45474 1.79262 6.36679 1.5803C6.27884 1.36798 6.14994 1.17507 5.98744 1.01256C5.82493 0.850061 5.63202 0.721157 5.4197 0.633211C5.20738 0.545265 4.97981 0.5 4.75 0.5C4.28587 0.5 3.84075 0.684375 3.51256 1.01256C3.18437 1.34075 3 1.78587 3 2.25C3 2.71413 3.18437 3.15925 3.51256 3.48744C3.84075 3.81563 4.28587 4 4.75 4Z" fill="#007AFF" stroke="#007AFF" stroke-linecap="round" stroke-linejoin="round"/>
<path d="M8.15186 0.75C8.4106 0.905628 8.62467 1.12555 8.77326 1.3884C8.92186 1.65124 8.99992 1.94806 8.99986 2.25C8.99992 2.55194 8.92186 2.84876 8.77326 3.1116C8.62467 3.37445 8.4106 3.59437 8.15186 3.75" stroke="#007AFF" stroke-linecap="round" stroke-linejoin="round"/>
<path d="M1 9.2V9.5H8.5V9.2C8.5 8.08 8.5 7.52 8.282 7.092C8.09026 6.71569 7.78431 6.40974 7.408 6.218C6.98 6 6.42 6 5.3 6H4.2C3.08 6 2.52 6 2.092 6.218C1.71569 6.40974 1.40974 6.71569 1.218 7.092C1 7.52 1 8.08 1 9.2Z" fill="#007AFF" stroke="#007AFF" stroke-linecap="round" stroke-linejoin="round"/>
<path d="M11.0002 9.50002V9.20002C11.0002 8.08002 11.0002 7.52002 10.7822 7.09202C10.5905 6.71571 10.2845 6.40976 9.9082 6.21802" stroke="#007AFF" stroke-linecap="round" stroke-linejoin="round"/>
</svg>
